<svg width="27" height="22" viewBox="0 0 27 22" fill="none" xmlns="http://www.w3.org/2000/svg">
<path opacity="0.7" d="M1.50188 2.40656C2.8691 1.81777 5.12062 1 6.93333 1C8.69168 1 10.5152 1.7772 11.6041 2.34899C11.8309 2.46809 12 2.72976 12 3.07543V17.9455C12 18.3263 11.7639 18.7381 11.2507 19.051C10.7354 19.3653 10.0949 19.4735 9.58632 19.3432C8.78781 19.1385 7.89316 19 6.93333 19C5.48207 19 4.05905 19.317 2.8743 19.6932C2.44981 19.8279 1.96245 19.7499 1.57883 19.5036C1.20167 19.2615 1 18.9115 1 18.541V3.22092C1 2.83843 1.20895 2.53272 1.50188 2.40656Z" fill="#D8D8D8" stroke="#D8D8D8" stroke-width="2" stroke-linecap="round" stroke-linejoin="round"/>
<path opacity="0.7" d="M25.4981 2.40656C24.1309 1.81777 21.8794 1 20.0667 1C18.3083 1 16.4848 1.7772 15.3959 2.34899C15.1691 2.46809 15 2.72976 15 3.07543V17.9455C15 18.3263 15.2361 18.7381 15.7493 19.051C16.2646 19.3653 16.9051 19.4735 17.4137 19.3432C18.2122 19.1385 19.1068 19 20.0667 19C21.5179 19 22.941 19.317 24.1257 19.6932C24.5502 19.8279 25.0376 19.7499 25.4212 19.5036C25.7983 19.2615 26 18.9115 26 18.541V3.22092C26 2.83843 25.791 2.53272 25.4981 2.40656Z" fill="#D8D8D8" stroke="#D8D8D8" stroke-width="2" stroke-linecap="round" stroke-linejoin="round"/>
</svg>
