<svg width="68" height="16" viewBox="0 0 68 16" fill="none" xmlns="http://www.w3.org/2000/svg">
<rect opacity="0.4" x="43.5" y="2.83334" width="21" height="10.3333" rx="2.16667" stroke="white"/>
<path opacity="0.5" d="M66 6V10C66.8079 9.66122 67.3333 8.87313 67.3333 8C67.3333 7.12687 66.8079 6.33878 66 6Z" fill="white"/>
<rect x="45" y="4.33334" width="18" height="7.33333" rx="1.33333" fill="white"/>
<path fill-rule="evenodd" clip-rule="evenodd" d="M30.3337 4.5739C32.5584 4.574 34.6981 5.41169 36.3105 6.91384C36.4319 7.02981 36.626 7.02835 36.7455 6.91056L37.9061 5.76273C37.9667 5.70299 38.0005 5.62206 38 5.53786C37.9995 5.45366 37.9647 5.37313 37.9035 5.31409C33.6716 1.33975 26.9952 1.33975 22.7633 5.31409C22.702 5.37309 22.6672 5.4536 22.6666 5.53779C22.6661 5.62199 22.6998 5.70294 22.7603 5.76273L23.9212 6.91056C24.0407 7.02853 24.2349 7.02999 24.3563 6.91384C25.9688 5.41159 28.1088 4.57389 30.3337 4.5739ZM30.3321 8.29945C31.5558 8.29938 32.7359 8.75598 33.643 9.58054C33.7657 9.69756 33.9589 9.69503 34.0785 9.57482L35.2391 8.39766C35.3002 8.33592 35.3342 8.25215 35.3333 8.16511C35.3324 8.07807 35.2968 7.99502 35.2344 7.93453C32.4722 5.35516 28.1944 5.35516 25.4321 7.93453C25.3697 7.99502 25.3341 8.07811 25.3333 8.16518C25.3325 8.25225 25.3665 8.33601 25.4278 8.39766L26.588 9.57482C26.7076 9.69503 26.9009 9.69756 27.0236 9.58054C27.9301 8.75653 29.1092 8.29996 30.3321 8.29945ZM32.6666 11.023C32.6683 11.1085 32.634 11.1909 32.5717 11.2508L30.557 13.2419C30.4979 13.3004 30.4174 13.3333 30.3334 13.3333C30.2494 13.3333 30.1688 13.3004 30.1098 13.2419L28.0947 11.2508C28.0324 11.1908 27.9982 11.1084 28 11.023C28.0019 10.9375 28.0396 10.8566 28.1044 10.7993C29.3911 9.73356 31.2756 9.73356 32.5623 10.7993C32.6271 10.8566 32.6648 10.9376 32.6666 11.023Z" fill="white"/>
<path fill-rule="evenodd" clip-rule="evenodd" d="M17.6666 3.66666C17.6666 3.11438 17.2189 2.66666 16.6666 2.66666H15.6666C15.1143 2.66666 14.6666 3.11438 14.6666 3.66666V12.3333C14.6666 12.8856 15.1143 13.3333 15.6666 13.3333H16.6666C17.2189 13.3333 17.6666 12.8856 17.6666 12.3333V3.66666ZM11 5H12C12.5522 5 13 5.44771 13 6V12.3333C13 12.8856 12.5522 13.3333 12 13.3333H11C10.4477 13.3333 9.99996 12.8856 9.99996 12.3333V6C9.99996 5.44771 10.4477 5 11 5ZM7.33329 7.33333H6.33329C5.78101 7.33333 5.33329 7.78105 5.33329 8.33333V12.3333C5.33329 12.8856 5.78101 13.3333 6.33329 13.3333H7.33329C7.88558 13.3333 8.33329 12.8856 8.33329 12.3333V8.33333C8.33329 7.78105 7.88558 7.33333 7.33329 7.33333ZM3.66663 10.3333C3.66663 9.78105 3.21891 9.33333 2.66663 9.33333H1.66663C1.11434 9.33333 0.666626 9.78105 0.666626 10.3333V12.3333C0.666626 12.8856 1.11434 13.3333 1.66663 13.3333H2.66663C3.21891 13.3333 3.66663 12.8856 3.66663 12.3333V10.3333Z" fill="white"/>
</svg>
